<svg id="e7890e47-f7a6-4ff1-a1c0-6ace6ae755be" data-name="Layer 1" xmlns="http://www.w3.org/2000/svg" xmlns:xlink="http://www.w3.org/1999/xlink" viewBox="0 0 1950.92 1963.35"><defs><style>.bd7ac263-6891-4e93-a32e-f91a33ac605d{fill:url(#0eb63fa9-77d3-4259-aee8-f077d3aa1f2c);}</style><linearGradient id="0eb63fa9-77d3-4259-aee8-f077d3aa1f2c" x1="24.28" y1="995.92" x2="1975.2" y2="995.92" gradientUnits="userSpaceOnUse"><stop offset="0" stop-color="#e84a5f"/><stop offset="1" stop-color="#bd3d4e"/></linearGradient></defs><title>app-icon</title><path class="bd7ac263-6891-4e93-a32e-f91a33ac605d" d="M24.28,1025.78c0-236,50.4-473.56,181.48-673.41C362.5,113.41,639.2-50,928.7,38.75s468.59,368.36,537.91,649.6c36.84,149.47,16.27,305.38,53.92,452.71,16,62.57,46.74,144.54,109.88,174.36,38.8,18.32,58.83.26,96.3-7.73,31.06-6.63,53.08,14,81.36,12.62,22.59-1.11,8.81,10.3,17.14,1.52,3.33-3.51-9.62-69.57-10.18-76.75-3.75-48.14,6.78-86.12,16.08-132.86,17.15-86.18,15.57-179.25-5.78-264.58-17.66-70.57-61.11-186.06-150-187.12-42.7-.51-76.52,30.63-99.73,63.08-7.72,10.8-44.47,92.64-45.4,92.57,1.17,0.1-51.72-237.07-58.78-258.1-7.73-23-48-93.59-44.81-116,4.51-31.33,52.71-67,79.23-85.06,173.62-118.5,324.21,60.61,386.87,209.83,118,281.11,116.07,683.54-49.08,946.55-95.73,152.46-267.09,211.88-399,65-114.63-127.61-156.88-316.5-169.77-482.86-13.37-172.55-9.7-341.45-138.19-476.95-120-126.52-304.36-128.12-425.49-2.47-124,128.59-161.94,335.07-126.75,506.43,15.52,75.58,61.18,139.88,75.55,214,8.44,43.53,1.79,86.51-6.37,129.5-6.71,35.33-31.54,88.3-28.14,123.49,64.12-29.9,122.81-71.31,187.35-101C869.86,1462.32,924.2,1478,983.25,1462c51.83-14.11,100.59-43.49,138.44-81.29,27.54-27.51,50.91-59.35,70.09-93.17,6.86-12.09,38-93.68,43-93.38s30.31,145.54,34.22,159.36a895.33,895.33,0,0,0,55.88,147c9.15,18.88,35.46,50.33,32.81,71.33-2.91,23-34.53,59-47,77.69-33.32,49.8-71.53,96.61-114.45,138.46-165.46,161.31-400.61,236.59-623.84,158.65C384.71,1881.14,242,1726.47,152.79,1553c-46.86-91.14-80.64-189.34-101.55-289.65-7.87-37.77-13.25-76-17.83-114.23-3.42-28.59,4.8-99.32-9.13-123.38C24.28,1007.78,25.42,1027.75,24.28,1025.78Z" transform="translate(-24.28 -14.25)"/></svg>