<svg id="6b9b0133-bf8b-4cda-bc08-5834383e208e" data-name="Layer 1" xmlns="http://www.w3.org/2000/svg" viewBox="0 0 1945 1965.38"><defs><style>.\34 ef0e816-6653-4218-b7dd-158b61313aa5{fill:#fff;}</style></defs><title>app-icon-white</title><path class="4ef0e816-6653-4218-b7dd-158b61313aa5" d="M24.28,1025.78v-54c1.23-2.13,1.18-4.49,1.1-6.81-0.68-19.66,1.87-39.22,1.83-58.87a7.24,7.24,0,0,1,.33-3c1.62-3.48,1.44-7.16,1.33-10.8-0.23-8.17,2-16.19,1.46-24.37a6,6,0,0,1,.33-2c2.11-7.37,1.68-15.09,3.12-22.56,0.47-2.42.57-4.94,0.84-7.4,0.59-5.27,1.75-10.49,2.09-15.72,0.61-9.3,2.34-18.44,3.92-27.53C42,785,43,777.1,44.57,769.3c1.94-9.89,4.38-19.72,5.69-29.75a43.94,43.94,0,0,1,1.27-7.35c2.51-8.08,3.92-16.43,5.85-24.64,2.39-10.16,4.68-20.35,7.38-30.43,4.24-15.84,8.29-31.73,13.37-47.34,3.7-11.36,7.27-22.77,10.59-34.25,1.72-5.94,4.39-11.47,6.43-17.27,3.73-10.65,7-21.53,11.49-31.83,5-11.4,9.06-23.17,14.1-34.56,5.3-12,10.56-24,15.92-35.91,4.14-9.24,8.87-18.21,13.5-27.22,6.46-12.57,12.81-25.22,19.69-37.56,5.66-10.15,11.82-20,17.58-30.11,3.77-6.6,8-13,12.21-19.34s8-12.6,12.25-18.72c6.25-9,12.19-18.17,18.58-27,6.89-9.55,14.11-18.87,21.27-28.22,4.94-6.46,9.7-13.09,15.11-19.14,9.4-10.5,18.5-21.26,28-31.71,9-10,18.4-19.57,28-29q11.16-11,22.57-21.8c3.76-3.53,7.85-6.71,11.77-10.07,18.71-16,37.41-32,57.73-46,9.29-6.4,18.44-13,28-19,7.19-4.5,14.37-9,21.67-13.35,11.16-6.63,22.57-12.78,34.1-18.75a589.69,589.69,0,0,1,55.47-25.12c14.25-5.6,28.72-10.6,43.36-15.12s29.14-8.43,43.91-11.73q25.8-5.76,52.1-9a580.11,580.11,0,0,1,59.72-4.36,528.1,528.1,0,0,1,54.89,1.79c14.93,1.23,29.79,3,44.56,5.46q15.23,2.53,30.34,5.77c8.93,1.91,17.84,4,26.62,6.53C916,34.93,922.32,37,928.7,38.75c11.56,3.2,22.62,7.78,34,11.48A214.28,214.28,0,0,1,991.82,62c7.42,3.69,15.32,6.41,22.88,9.92,8.76,4.06,17.39,8.38,25.93,12.81,13.58,7,26.81,14.75,39.84,22.79a696.53,696.53,0,0,1,93,69,766.26,766.26,0,0,1,55.22,53.57,865.64,865.64,0,0,1,67.72,82.07,950.23,950.23,0,0,1,63.2,99.52c15.79,28.62,30.34,57.84,43.41,87.78q18.1,41.47,32.82,84.28Q1449.68,624,1460.63,665a1264.65,1264.65,0,0,1,32.19,165.17c4.9,37.86,7.74,75.88,9.41,114,0.73,16.64.62,33.31,1,50,0.14,6.51-.72,13-0.52,19.47,0.18,6,1.24,11.9,1.53,17.87a576.18,576.18,0,0,0,6.24,59.6c5.19,33.69,13.22,66.65,25.19,98.6,10.75,28.69,24,56,42.81,80.45,14.28,18.55,30.73,34.65,51.94,45.26a93,93,0,0,0,39.86,10.11c6.43,0.15,12.45-1.49,18.66-2.67,13.67-2.6,26-8,37.77-15.17,8.32-5,17.17-7.38,27.21-4.88a397.14,397.14,0,0,1,54.15,17.5c4.63,1.89,9.27,3.74,13.95,5.51,3.43,1.3,3.87.93,3.45-2.52-0.06-.5-0.18-1-0.25-1.48-2.65-17.62-5.54-35.21-7.54-52.92-2.7-23.83-5.87-47.61-3.76-71.72,1.18-13.47,2.6-26.92,6.3-39.92a566,566,0,0,0,21.48-136.87c1.1-33.16.36-66.28-3.43-99.3C1833.5,879.72,1825.12,839.2,1811,800c-10.76-29.95-24.5-58.37-43.83-83.84-13.32-17.56-28.7-32.91-48.28-43.52-29-15.69-58.2-16.17-87.53-1-17.15,8.85-31.19,21.56-43.58,36.17-17.39,20.52-30.4,43.72-41.17,68.24-5.23,11.91-9.73,24.1-13.9,36.41-0.51,1.49-.71,3.94-2.58,3.78-2.3-.19-1.88-2.8-2.08-4.47q-6.19-51.12-16.14-101.64a1193.66,1193.66,0,0,0-40.56-152c-13.32-39.3-28-78.07-44.81-116-1.39-3.15-1.3-5.5.82-8.22a446.79,446.79,0,0,1,33.71-38.88c23.09-23.47,48.77-43.42,78.64-57.6,30.19-14.34,61.84-21.42,95.44-19,25.28,1.81,49.11,8.7,71.84,19.59a254.85,254.85,0,0,1,52.26,34c29.93,24.76,54.55,54.21,76.05,86.37,22.86,34.2,41.5,70.65,57.35,108.57,21.72,52,37.88,105.66,49.9,160.64q10,45.91,16.28,92.5,4.58,33.93,7.4,68c1.33,16.43,2.73,32.88,2.41,49.39a20.62,20.62,0,0,0,.63,5.43v98a36.11,36.11,0,0,0-.58,4.44c-0.1,9.33-.44,18.63-0.95,28-1.16,21.47-3.17,42.85-5.57,64.2q-4.38,39-11.41,77.6c-9.72,53.88-23.05,106.81-41.3,158.45-17.26,48.85-38.35,95.9-65.88,139.91-20,31.92-42.72,61.61-70.31,87.39s-58.38,46.25-94.53,58.22c-24.53,8.12-49.48,11.61-75.29,9.34a197.23,197.23,0,0,1-72.46-21.15c-26.85-13.61-50.4-31.79-71.6-53.05-30.59-30.67-55.18-65.8-76.33-103.44a679.27,679.27,0,0,1-33.07-67.8,866.3,866.3,0,0,1-31.9-88.87,1047.35,1047.35,0,0,1-27.62-116.12q-6.24-34.67-10.46-69.65-3.19-26.29-5.18-52.69c-1.26-16.44-2.65-32.87-2.87-49.37,0-3-.45-6-0.44-9,0-6-1.53-11.87-1.19-17.89,1.49-26.34.42-52.66-1.64-78.9-1.52-19.41-4.16-38.73-7.54-57.94a585.1,585.1,0,0,0-31.42-112.95c-12.41-31.54-27.32-61.82-45.83-90.31a422.67,422.67,0,0,0-47.26-60.62c-27-28.54-57.57-52.42-92.93-70-16.16-8-32.85-14.81-50.27-19.11-16.43-4.06-33.09-7.4-50.08-8.94A252.31,252.31,0,0,0,824.53,538a295,295,0,0,0-73.77,42.5c-22.51,17.56-43.09,37.11-60.82,59.65-8.44,10.73-16.69,21.54-24.35,32.83a475.21,475.21,0,0,0-35.11,61.49c-7.06,14.72-13.36,29.75-19.07,45.06Q602.5,803.41,595.74,828c-4.53,16.51-8.54,33.17-11.51,50.07-3.08,17.54-5.91,35.09-7.7,52.81-0.45,4.47-.51,9-1.14,13.4-1.14,8.09-1.18,16.24-1.78,24.35-0.44,6-.13,12-0.16,18-0.09,19.15-.3,38.31,1.24,57.42,0.35,4.32-.09,8.57.07,12.82A173.94,173.94,0,0,0,577,1078.6c3.62,22,6.74,44.05,12.24,65.73,4,15.82,8.3,31.53,13.24,47.07,1.41,4.44,2.69,8.94,4.42,13.25,5.15,12.82,9.54,25.92,15.39,38.47s11.81,25.33,18.58,37.57c2.17,3.93,4.86,7.71,6.23,11.91,3,9.33,7,18.35,9.26,27.93,2.52,10.67,5,21.32,6.3,32.25,0.67,5.66.09,11.37,1,16.92,1.48,8.81.64,17.63,0.47,26.39a161.06,161.06,0,0,1-3.18,27.23c-2.74,14.2-4.29,28.6-7.38,42.74-3,13.81-5.09,27.8-8.58,41.52-3.15,12.4-5.64,25-8.68,37.39-3.2,13.09-6.69,26.1-10.12,39.14a14.6,14.6,0,0,0-.76,5.45c1.43-.67,2.51-1.08,3.5-1.65,15.45-8.82,31-17.53,46.3-26.52,19.67-11.52,39.65-22.49,59.78-33.18,29.37-15.6,58.74-31.23,89.06-45,7.87-3.57,15.72-7.24,24-9.82,9.41-3,19.28-3.47,29-4.27a45.31,45.31,0,0,1,7.93-.24c9.11,0.86,18.23,1.67,27.39,1.82,11.82,0.19,23.71.15,35.33-1.7,17.89-2.85,35.7-6.24,52.89-12.42a312.47,312.47,0,0,0,51.55-23.83c4.32-2.51,8.16-6,12.91-7.53a35.1,35.1,0,0,0,9.64-5.06,365.32,365.32,0,0,0,47-39.53c33.4-33.46,59.89-71.83,81.18-113.88a554.7,554.7,0,0,0,28.9-68.58c0.57-1.64.83-4.22,3-4.09s2,2.79,2.27,4.46q2.78,16.5,5.34,33c5.06,33,12,65.53,20.19,97.83a910.76,910.76,0,0,0,29.52,94.91q14.51,38.9,32.77,76.16c10.17,20.8,20.57,41.48,32.81,61.16,2.21,3.55,2.1,6.6,0,10.17-6.68,11.34-13,22.92-19.66,34.24a907.21,907.21,0,0,1-89.11,125.33,799.72,799.72,0,0,1-90.81,91.36,683.35,683.35,0,0,1-138.73,92.75c-13.51,6.88-27.52,12.58-41.2,19-14.47,6.81-30.09,10.72-45,16.58a4.77,4.77,0,0,1-.48.14c-13,3.58-25.79,7.68-38.88,10.86-16.33,4-32.76,7.39-49.35,10a547,547,0,0,1-75.54,6.58,557,557,0,0,1-62.31-2.52,542.17,542.17,0,0,1-67.05-10.43,572.07,572.07,0,0,1-67.23-19.14q-25-8.84-49.15-19.6c-12.64-5.59-24.86-12-37.17-18.31-10.69-5.44-20.89-11.7-31.15-17.86-10.84-6.5-21.34-13.54-31.92-20.45-9.9-6.47-19.46-13.41-28.7-20.66-21.86-17.16-43.24-34.93-63.39-54.12-1.2-1.15-2.51-2.18-3.68-3.36-4.65-4.72-9.27-9.47-13.9-14.21-4.16-4.27-8.41-8.45-12.47-12.82-6.09-6.56-12-13.28-18-19.91-4.46-4.92-8.58-10.13-13.06-15s-8.33-10.32-12.52-15.44c-7.69-9.38-14.94-19.08-22.28-28.71-9.17-12-17.45-24.65-26-37.12-4.21-6.17-8.4-12.37-12.23-18.78-4.86-8.12-9.87-16.15-14.61-24.35-6.49-11.22-13.33-22.23-19.32-33.73-10-19.16-20.21-38.18-29-58-3.55-8-7.41-15.94-10.8-24.05-5.56-13.31-11.39-26.53-16.65-40-5.08-13-9.62-26.17-14.32-39.3-4.75-13.28-8.49-26.89-12.84-40.3-3.64-11.21-6.67-22.56-9.93-33.86-2.8-9.72-5.43-19.48-7.8-29.31-1.79-7.41-3.63-14.82-5.36-22.24-1.69-7.25-3.4-14.51-4.88-21.81-2-9.9-3.84-19.83-5.65-29.77-1.4-7.65-2.85-15.29-3.89-23a121,121,0,0,0-2.27-14.2c-1.43-5.53-1.65-11.15-2.37-16.71-0.81-6.22-2-12.41-2.54-18.69-0.37-3.95.18-8.1-1.11-11.86-2.3-6.71-1.84-13.78-2.84-20.61-1.73-11.91-1.57-24.08-3.17-36.11-1.22-9.18-.49-18.56-1.33-27.87-1-10.76-.53-21.64-0.68-32.47C25.36,1029.93,25.42,1027.75,24.28,1025.78Z" transform="translate(-24.28 -13.44)"/></svg>