<svg id="264f14b7-4937-4b9f-b7b1-b3fe0047a628" data-name="Layer 1" xmlns="http://www.w3.org/2000/svg" viewBox="0 0 278.15 139.79"><defs><style>.f3738635-7931-43aa-889a-2344af4ffb02{fill:#959595;}</style></defs><title>arrow-down</title><path class="f3738635-7931-43aa-889a-2344af4ffb02" d="M278.11,0.66L139,139.79,0,0.83c4.49,0,8.84,0,13.19,0q28.62,0.22,57.24.47a25.56,25.56,0,0,1,4.73.22A7.76,7.76,0,0,1,79,3.14q28.91,28.71,57.67,57.57c2.82,2.82,3.17,2.83,6,0Q171.41,32,200.08,3.21A9.8,9.8,0,0,1,207.75.1c7.88,0.07,15.77-.15,23.66-0.09,15.52,0.12,31,.36,46.55.57C278.09,0.58,278.21.73,278.11,0.66Z" transform="translate(0 0)"/></svg>