<svg id="fcb328dd-7276-4491-a4a8-478ac5054af0" data-name="Layer 1" xmlns="http://www.w3.org/2000/svg" viewBox="0 0 278.15 139.79"><defs><style>.\31 ca11853-67fd-4148-bd90-d3f3dba97cda{fill:#959595;}</style></defs><title>arrow-up</title><path class="1ca11853-67fd-4148-bd90-d3f3dba97cda" d="M0,139.12L139.16,0l139,139c-4.49,0-8.84,0-13.19,0q-28.62-.22-57.24-0.47a25.56,25.56,0,0,1-4.73-.22,7.76,7.76,0,0,1-3.85-1.62q-28.91-28.71-57.67-57.57c-2.82-2.82-3.17-2.83-6,0q-28.72,28.72-57.39,57.5a9.8,9.8,0,0,1-7.68,3.11c-7.88-.07-15.77.15-23.66,0.09-15.52-.12-31-0.36-46.55-0.57C0.06,139.21-.07,139.05,0,139.12Z"/></svg>